<svg width="25" height="25" viewBox="0 0 25 25" fill="none" xmlns="http://www.w3.org/2000/svg">
<path d="M6.28516 8.28418H4.28516M6.28516 16.2842H4.28516M6.28516 12.2842H3.28516M7.28516 4.79973C8.71525 3.84245 10.435 3.28418 12.2852 3.28418C17.2557 3.28418 21.2852 7.31362 21.2852 12.2842C21.2852 17.2547 17.2557 21.2842 12.2852 21.2842C10.435 21.2842 8.71525 20.7259 7.28516 19.7686M15.2852 9.78409C14.7852 9.66007 13.9702 9.65551 13.2852 9.66007M13.2852 9.66007C13.0561 9.6616 13.1946 9.65186 12.8852 9.66007C12.0777 9.68526 11.2868 10.0208 11.2852 10.9716C11.2834 11.9844 12.2852 12.2841 13.2852 12.2841C14.2852 12.2841 15.2852 12.5153 15.2852 13.5966C15.2852 14.4092 14.4777 14.7652 13.4713 14.8831C12.6713 14.8831 12.2852 14.9091 11.2852 14.7841M13.2852 9.66007L13.2852 8.28418M13.2852 15.2842V16.2842" stroke="#F2994A" stroke-width="2" stroke-linecap="round" stroke-linejoin="round"/>
</svg>
