<svg width="25" height="25" viewBox="0 0 25 25" fill="none" xmlns="http://www.w3.org/2000/svg">
<path d="M21.286 21.284H13.286M14.286 6.28403L18.286 10.284M4.46267 21.0487L6.38584 20.6641C7.09211 20.5228 7.44524 20.4522 7.77453 20.323C8.06682 20.2084 8.34459 20.0597 8.60211 19.8801C8.89223 19.6778 9.14688 19.4231 9.65618 18.9138L20.1546 8.4154C20.5506 8.01938 20.7486 7.82137 20.8228 7.59305C20.8881 7.3922 20.8881 7.17585 20.8228 6.97501C20.7486 6.74668 20.5506 6.54868 20.1546 6.15266L18.4173 4.4154C18.0213 4.01938 17.8233 3.82137 17.595 3.74719C17.3941 3.68193 17.1778 3.68193 16.977 3.74719C16.7486 3.82137 16.5506 4.01938 16.1546 4.4154L5.65618 14.9138C5.14688 15.4231 4.89223 15.6778 4.68989 15.9679C4.51029 16.2254 4.36163 16.5032 4.24699 16.7955C4.11783 17.1248 4.0472 17.4779 3.90595 18.1842L3.52131 20.1073C3.44262 20.5008 3.40328 20.6975 3.46133 20.8378C3.51208 20.9605 3.60953 21.0579 3.7322 21.1087C3.87251 21.1667 4.06923 21.1274 4.46267 21.0487Z" stroke="#2F80ED" stroke-width="2" stroke-linecap="round" stroke-linejoin="round"/>
</svg>
