<svg width="17" height="13" viewBox="0 0 17 13" fill="none" xmlns="http://www.w3.org/2000/svg">
<path d="M2.36358 3.31415L3.96151 1.71622C4.39389 1.28384 4.61008 1.06765 4.86237 0.913049C5.08605 0.775977 5.32992 0.674966 5.58501 0.613724C5.87272 0.544649 6.17846 0.544649 6.78994 0.544649L12.3289 0.544649C13.7291 0.544649 14.4291 0.54465 14.9639 0.817133C15.4343 1.05682 15.8168 1.43927 16.0565 1.90967C16.3289 2.44445 16.3289 3.14453 16.3289 4.54465V7.74051C16.3289 9.14063 16.3289 9.84071 16.0565 10.3755C15.8168 10.8459 15.4343 11.2283 14.9639 11.468C14.4291 11.7405 13.7291 11.7405 12.3289 11.7405L6.78994 11.7405C6.17846 11.7405 5.87272 11.7405 5.58501 11.6714C5.32992 11.6102 5.08605 11.5092 4.86237 11.3721C4.61008 11.2175 4.39389 11.0013 3.96151 10.5689L2.36358 8.97101C1.37354 7.98096 0.87852 7.48594 0.693049 6.91512C0.529904 6.41301 0.529904 5.87214 0.693049 5.37004C0.87852 4.79921 1.37354 4.30419 2.36358 3.31415Z" fill="#C236DF"/>
<path d="M4.60252 5.84795C4.76524 6.01067 4.76524 6.27449 4.60252 6.43721C4.43981 6.59992 4.17599 6.59992 4.01327 6.43721C3.85055 6.27449 3.85055 6.01067 4.01327 5.84795C4.17599 5.68523 4.43981 5.68523 4.60252 5.84795Z" fill="#C236DF"/>
<path d="M4.3079 6.14258L4.31379 6.13669M3.96151 1.71622L2.36358 3.31415C1.37354 4.30419 0.87852 4.79921 0.693049 5.37004C0.529904 5.87214 0.529904 6.41301 0.693049 6.91512C0.87852 7.48594 1.37354 7.98096 2.36358 8.97101L3.96151 10.5689C4.39389 11.0013 4.61008 11.2175 4.86237 11.3721C5.08605 11.5092 5.32992 11.6102 5.58501 11.6714C5.87272 11.7405 6.17846 11.7405 6.78994 11.7405L12.3289 11.7405C13.7291 11.7405 14.4291 11.7405 14.9639 11.468C15.4343 11.2283 15.8168 10.8459 16.0565 10.3755C16.3289 9.84071 16.3289 9.14063 16.3289 7.74051V4.54465C16.3289 3.14453 16.3289 2.44445 16.0565 1.90967C15.8168 1.43927 15.4343 1.05682 14.9639 0.817133C14.4291 0.54465 13.7291 0.544649 12.3289 0.544649L6.78994 0.544649C6.17846 0.544649 5.87272 0.544649 5.58501 0.613724C5.32992 0.674966 5.08605 0.775977 4.86237 0.913049C4.61008 1.06765 4.39389 1.28384 3.96151 1.71622ZM4.60252 5.84795C4.76524 6.01067 4.76524 6.27449 4.60252 6.43721C4.43981 6.59992 4.17599 6.59992 4.01327 6.43721C3.85055 6.27449 3.85055 6.01067 4.01327 5.84795C4.17599 5.68523 4.43981 5.68523 4.60252 5.84795Z" stroke="white" stroke-linecap="round" stroke-linejoin="round"/>
</svg>
